<svg width="24" height="24" viewBox="0 0 24 24" fill="none" xmlns="http://www.w3.org/2000/svg">
<path d="M13.5 12L12 10.5L10.0954 11.5095C9.68033 11.2899 9.30905 10.9961 9 10.6426C8.38972 11.336 7.55816 11.7966 6.64667 11.9463C5.73517 12.096 4.79997 11.9254 4 11.4636V21.0006C4.00008 21.2657 4.10549 21.52 4.29302 21.7074C4.48056 21.8948 4.73486 22.0001 5 22H9V15C9 14.7348 12.3125 15.1875 12.5 15C12.6875 14.8125 13.2348 12 13.5 12ZM15 16.4141V22H19.0005C19.204 21.9992 19.4024 21.9359 19.5687 21.8186C19.735 21.7014 19.8613 21.5359 19.9305 21.3445L15 16.4141Z" fill="#B6CDBD"/>
<path d="M14 14H11.4141L13 11C13.4151 10.7804 14.6909 10.9961 15 10.6426C15.6103 11.336 16.4418 11.7966 17.3533 11.9463C18.2648 12.096 19.2 11.9254 20 11.4636V21.0006C19.9999 21.2657 19.8945 21.52 19.707 21.7074C19.5194 21.8948 19.2657 22.0001 19.0005 22H15V15C15 14.7348 14.8946 14.4804 14.7071 14.2929C14.5196 14.1054 14.2652 14 14 14ZM9 16.4141V22H5C4.79651 21.9992 4.59763 21.9359 4.43131 21.8186C4.26498 21.7014 4.13869 21.5359 4.06952 21.3445L9 16.4141Z" fill="#B6CDBD"/>
<path d="M12.5859 14H10C9.73478 14 9.48043 14.1054 9.29289 14.2929C9.10536 14.4804 9 14.7348 9 15V22H15V16.4141L12.5859 14Z" fill="#5C715E"/>
<path d="M11.4141 14H14C14.2652 14 14.5196 14.1054 14.7071 14.2929C14.8946 14.4804 15 14.7348 15 15V22H9V16.4141L11.4141 14Z" fill="#5C715E"/>
<path d="M13.211 11.797C13.9016 11.5828 14.5204 11.1836 15 10.6425C15.5368 11.2527 16.2467 11.6849 17.0353 11.8814C17.8239 12.0778 18.6536 12.0293 19.414 11.7423C20.1743 11.4553 20.8291 10.9433 21.2911 10.2748C21.7531 9.60617 22.0004 8.81266 22 7.99997C21.9999 7.87289 21.9757 7.74697 21.9287 7.62889L19.9287 2.62891C19.8544 2.44332 19.7262 2.28423 19.5607 2.17214C19.3952 2.06005 19.1999 2.0001 19 2H5C4.8001 2.0001 4.6048 2.06005 4.43928 2.17214C4.27375 2.28423 4.14559 2.44332 4.07129 2.62891L4.06317 2.64911L13.211 11.797ZM4.06317 2.64911L2.07129 7.62889C2.0243 7.74697 2.00011 7.87289 2 7.99997C1.99963 8.81265 2.24692 9.60615 2.70894 10.2747C3.17095 10.9433 3.82574 11.4552 4.58605 11.7422C5.34636 12.0293 6.17609 12.0778 6.96466 11.8813C7.75324 11.6848 8.46322 11.2527 9 10.6425C9.30905 10.9961 9.68032 11.2899 10.0954 11.5094L4.06317 2.64911Z" fill="#5C715E"/>
<path d="M10.7889 11.797C10.0983 11.5829 9.47964 11.1836 9 10.6425C8.46322 11.2527 7.75324 11.6848 6.96466 11.8813C6.17609 12.0778 5.34636 12.0293 4.58605 11.7422C3.82574 11.4552 3.17095 10.9433 2.70894 10.2747C2.24692 9.60615 1.99963 8.81265 2 7.99997C2.00011 7.87289 2.0243 7.74697 2.07129 7.62889L4.07129 2.62891C4.14559 2.44332 4.27375 2.28423 4.43928 2.17214C4.6048 2.06005 4.8001 2.0001 5 2H19C19.1999 2.0001 19.3952 2.06005 19.5607 2.17214C19.7262 2.28423 19.8544 2.44332 19.9287 2.62891L19.9368 2.64911L10.7889 11.797ZM19.9368 2.64911L21.9287 7.62889C21.9757 7.74697 21.9999 7.87289 22 7.99997C22.0004 8.81266 21.7531 9.60617 21.2911 10.2748C20.8291 10.9433 20.1743 11.4553 19.414 11.7423C18.6536 12.0293 17.8239 12.0778 17.0353 11.8814C16.2467 11.6849 15.5368 11.2527 15 10.6425C14.6909 10.9961 14.3197 11.2899 13.9046 11.5095L19.9368 2.64911Z" fill="#5C715E"/>
<path d="M16 8.00012C16 10.2092 14.2091 12.0001 12 12.0001C9.79083 12.0001 7.99997 10.2092 7.99997 8.00012C7.99997 5.79098 9.79083 4.00012 12 4.00012C14.2091 4.00012 16 5.79098 16 8.00012Z" fill="#5C715E"/>
</svg>
